<svg width="90" height="150" viewBox="0 0 90 150" fill="none" xmlns="http://www.w3.org/2000/svg">
<path d="M88.926 0.559006H1.07401C0.788846 0.559006 0.515416 0.672286 0.316196 0.871506C0.113076 1.07463 -0.000213623 1.34807 -0.000213623 1.63323V72.3672C-0.000213623 72.6524 0.113066 72.9258 0.316196 73.1289C0.515416 73.3282 0.788856 73.4414 1.07401 73.4414H88.926C89.2112 73.4414 89.4846 73.3282 89.6838 73.1289C89.8869 72.9258 90.0002 72.6524 90.0002 72.3672V1.63323C90.0002 1.34807 89.8869 1.07464 89.6838 0.871506C89.4846 0.672286 89.2112 0.559006 88.926 0.559006ZM87.8518 2.71131L87.8479 14.5003H2.1529V2.71131H87.8518ZM2.15281 71.2893V16.6523H87.8518V71.2933L2.15281 71.2893ZM44.8558 47.6483H37.4496C37.1644 47.6483 36.891 47.7616 36.6879 47.9647C36.4848 48.1678 36.3715 48.4413 36.3715 48.7264V63.9104C36.3715 64.1995 36.4848 64.4729 36.6879 64.6722C36.891 64.8753 37.1644 64.9886 37.4496 64.9886H44.8558C45.141 64.9886 45.4144 64.8753 45.6175 64.6722C45.8206 64.4729 45.9339 64.1995 45.9339 63.9104V48.7264C45.9339 48.4413 45.8207 48.1678 45.6175 47.9647C45.4144 47.7616 45.141 47.6483 44.8558 47.6483ZM43.7816 62.8363H38.5238V49.8013H43.7816V62.8363ZM56.9576 38.6373H49.5474C48.9537 38.6373 48.4732 39.1178 48.4732 39.7115V63.9105C48.4732 64.1996 48.5865 64.473 48.7896 64.6722C48.9888 64.8753 49.2623 64.9886 49.5474 64.9886H56.9576C57.2428 64.9886 57.5162 64.8754 57.7154 64.6722C57.9186 64.473 58.0318 64.1996 58.0318 63.9105V39.7115C58.0318 39.1178 57.5513 38.6373 56.9576 38.6373ZM55.8834 62.8363H50.6217V40.7893H55.8795L55.8834 62.8363ZM69.0554 42.4653H61.6492C61.364 42.4653 61.0906 42.5786 60.8875 42.7817C60.6844 42.9809 60.5711 43.2544 60.5711 43.5395V63.9105C60.5711 64.1996 60.6844 64.473 60.8875 64.6722C61.0906 64.8754 61.364 64.9887 61.6492 64.9887H69.0554C69.3406 64.9887 69.614 64.8754 69.8171 64.6722C70.0203 64.473 70.1335 64.1996 70.1335 63.9105V43.5395C70.1335 42.9458 69.6491 42.4653 69.0554 42.4653ZM67.9812 62.8363H62.7234V44.6173H67.9812V62.8363ZM81.1572 32.2233H73.747C73.4618 32.2233 73.1884 32.3366 72.9853 32.5397C72.7861 32.7428 72.6728 33.0163 72.6728 33.3014V63.9104C72.6728 64.1995 72.7861 64.4729 72.9853 64.6722C73.1884 64.8753 73.4618 64.9886 73.747 64.9886H81.1572C81.4424 64.9886 81.7158 64.8753 81.915 64.6722C82.1181 64.4729 82.2314 64.1995 82.2314 63.9104V33.3014C82.2314 33.0163 82.1181 32.7428 81.915 32.5397C81.7158 32.3366 81.4424 32.2233 81.1572 32.2233ZM80.0791 62.8363H74.8213V34.3753H80.0791V62.8363ZM77.126 8.60231C77.1299 8.00856 77.6104 7.5281 78.2002 7.5281H81.1924C81.4815 7.52029 81.7627 7.62967 81.9737 7.8328C82.1807 8.03592 82.2979 8.31327 82.2979 8.60624C82.2979 8.8953 82.1807 9.17654 81.9737 9.37576C81.7627 9.57888 81.4815 9.68827 81.1924 9.68046H78.2002C77.9151 9.68046 77.6416 9.56718 77.4385 9.36405C77.2393 9.16093 77.126 8.88747 77.126 8.60231ZM66.2 8.60231C66.2 8.31715 66.3133 8.04372 66.5164 7.84059C66.7195 7.63746 66.993 7.52418 67.2781 7.52418H70.2664C70.5594 7.51636 70.8407 7.62574 71.0477 7.82887C71.2586 8.03199 71.3758 8.30934 71.3758 8.60231C71.3758 8.89137 71.2586 9.17262 71.0477 9.37184C70.8407 9.57496 70.5594 9.68434 70.2664 9.67653H67.2781C66.6844 9.67653 66.2 9.19604 66.2 8.60231ZM40.356 8.60231C40.356 8.31715 40.4693 8.04372 40.6724 7.84059C40.8755 7.63746 41.149 7.52418 41.4341 7.52418H59.3361C59.6291 7.51636 59.9104 7.62574 60.1174 7.82887C60.3283 8.03199 60.4455 8.30934 60.4455 8.60231C60.4455 8.89137 60.3283 9.17262 60.1174 9.37184C59.9104 9.57496 59.6291 9.68434 59.3361 9.67653H41.4301C41.145 9.67653 40.8715 9.56325 40.6723 9.36012C40.4692 9.1609 40.356 8.88746 40.356 8.60231ZM18.333 19.1453C12.9502 19.1453 8.09501 22.3914 6.03601 27.3641C3.97351 32.3407 5.11413 38.0631 8.91881 41.8721C12.7274 45.6807 18.454 46.8174 23.4268 44.7588C28.4034 42.6963 31.6456 37.8447 31.6456 32.4578C31.6378 25.1101 25.6802 19.1523 18.333 19.1453ZM29.442 31.3833H19.407V21.3523C24.7195 21.8718 28.9187 26.075 29.442 31.3833ZM7.17201 32.4575C7.17982 26.7153 11.5392 21.9105 17.258 21.3525V32.4575C17.2541 32.6489 17.3049 32.8364 17.3986 33.0005L22.9806 42.6021C19.5275 44.188 15.504 43.9068 12.3046 41.8521C9.10154 39.8013 7.16811 36.2582 7.17201 32.4575ZM24.844 41.5122L20.1995 33.5356H29.4417C29.1292 36.7309 27.4534 39.6411 24.844 41.5161V41.5122ZM5.02001 52.8872C5.02001 52.602 5.13329 52.3247 5.33642 52.1255C5.53954 51.9224 5.81298 51.8091 6.10204 51.8091H11.6606H11.6567C12.2544 51.8091 12.7348 52.2935 12.7348 52.8872C12.7348 53.4809 12.2544 53.9614 11.6567 53.9614H6.10203C5.81297 53.9653 5.53953 53.852 5.33641 53.6489C5.13328 53.4457 5.02001 53.1724 5.02001 52.8872ZM31.6449 52.8872C31.6449 53.481 31.1644 53.9614 30.5668 53.9614H16.7658H16.7697C16.1721 53.9614 15.6916 53.4809 15.6916 52.8872C15.6916 52.2935 16.1721 51.8091 16.7697 51.8091H30.5707H30.5668C30.852 51.8091 31.1293 51.9224 31.3285 52.1255C31.5317 52.3286 31.6449 52.602 31.6449 52.8872ZM31.6449 58.3989C31.6449 58.9927 31.1644 59.477 30.5668 59.477H25.0121C24.4184 59.477 23.934 58.9926 23.934 58.3989C23.934 57.8052 24.4184 57.3247 25.0121 57.3247H30.5707H30.5668C30.8559 57.3247 31.1293 57.438 31.3285 57.6372C31.5316 57.8403 31.6449 58.1138 31.6449 58.3989ZM5.02001 58.3989C5.02001 58.1138 5.13329 57.8403 5.33642 57.6372C5.53954 57.4341 5.81298 57.3208 6.10204 57.3247H19.899C20.4967 57.3247 20.9771 57.8052 20.9771 58.3989C20.9771 58.9926 20.4967 59.477 19.899 59.477H6.10204C5.81298 59.477 5.53954 59.3637 5.33642 59.1606C5.1372 58.9614 5.02001 58.688 5.02001 58.3989ZM12.7309 63.9106C12.7309 64.5083 12.2504 64.9887 11.6528 64.9887H6.10201C5.50435 64.9887 5.02391 64.5082 5.02391 63.9106C5.02391 63.3169 5.50438 62.8364 6.10201 62.8364H11.6606H11.6567C12.2505 62.8403 12.7309 63.3208 12.7309 63.9106ZM31.6449 63.9106C31.6449 64.5083 31.1644 64.9887 30.5668 64.9887H16.7658H16.7697C16.1721 64.9887 15.6916 64.5082 15.6916 63.9106C15.6916 63.3169 16.1721 62.8364 16.7697 62.8364H30.5707H30.5668C30.852 62.8364 31.1293 62.9497 31.3285 63.1528C31.5316 63.352 31.6449 63.6255 31.6449 63.9106ZM41.1527 44.8056C42.5785 44.8095 43.9105 44.0986 44.7035 42.9189C45.5004 41.7353 45.6566 40.2353 45.1176 38.915L50.5746 34.8486C51.5238 35.6142 52.7582 35.9384 53.9613 35.7353C55.1683 35.5322 56.2269 34.8213 56.8754 33.7861L61.0746 35.1142C61.0746 35.1884 61.0668 35.2627 61.0668 35.3369V35.3408C61.0668 36.6455 61.6605 37.876 62.6762 38.6924C63.6957 39.5049 65.0317 39.8096 66.3012 39.5205C67.5707 39.2315 68.641 38.376 69.2074 37.2041C69.7738 36.0283 69.7699 34.6611 69.2034 33.4853L74.9808 28.5947H74.9847C76.7425 29.8291 79.1449 29.5674 80.5941 27.9775C82.0433 26.3916 82.0863 23.9736 80.6956 22.3369C79.305 20.6963 76.9144 20.3447 75.1097 21.5166C73.3089 22.6885 72.6566 25.0205 73.5902 26.9541L67.8129 31.8447C66.8559 31.165 65.6567 30.915 64.5043 31.1455C63.3559 31.376 62.3481 32.0713 61.727 33.0674L57.5278 31.7393C57.5278 31.6651 57.5356 31.5909 57.5356 31.5166L57.5317 31.5127C57.5317 30.2354 56.9614 29.0205 55.9731 28.2041C54.9848 27.3916 53.684 27.0635 52.4301 27.3096C51.1723 27.5518 50.0903 28.3487 49.4848 29.4737C48.8754 30.6026 48.8012 31.9425 49.2856 33.126L43.8286 37.1924C42.7466 36.3213 41.313 36.0322 39.977 36.4151C38.6411 36.794 37.5747 37.7979 37.1137 39.1104C36.6567 40.419 36.8598 41.8682 37.6606 43.001C38.4614 44.1338 39.766 44.8056 41.1527 44.8056ZM77.4537 22.9696C78.3131 22.9696 79.0904 23.4891 79.4185 24.286C79.7466 25.079 79.5669 25.9969 78.9576 26.6024C78.3482 27.2118 77.4342 27.3954 76.6373 27.0672C75.8443 26.7391 75.3248 25.9617 75.3209 25.1024C75.3209 23.9266 76.274 22.9696 77.4498 22.9696L77.4537 22.9696ZM65.3517 33.2116C66.215 33.2116 66.9884 33.7311 67.3205 34.5241C67.6486 35.321 67.465 36.2389 66.8596 36.8444C66.2502 37.4538 65.3323 37.6374 64.5393 37.3092C63.7424 36.9772 63.2229 36.1998 63.2229 35.3404C63.2229 34.1646 64.1759 33.2116 65.3517 33.2116ZM53.2536 29.3835C54.113 29.3835 54.8903 29.903 55.2184 30.6999C55.5465 31.4929 55.3669 32.4108 54.7575 33.0202C54.1481 33.6296 53.2341 33.8093 52.4372 33.4811C51.6403 33.153 51.1208 32.3756 51.1208 31.5123C51.1247 30.3365 52.0778 29.3874 53.2536 29.3835ZM41.1517 38.3991C42.0111 38.3991 42.7884 38.9186 43.1165 39.7155C43.4485 40.5124 43.2649 41.4264 42.6556 42.0358C42.0462 42.6452 41.1322 42.8249 40.3353 42.4967C39.5423 42.1686 39.0228 41.3912 39.0228 40.5279C39.0228 39.356 39.9759 38.403 41.1517 38.3991Z" fill="#F8D568"/>
</svg>
