<svg width="98" height="100" viewBox="0 0 98 100" fill="none" xmlns="http://www.w3.org/2000/svg">
<path d="M4.01 96V0H0.0100002V96H0V100H98V96H4.01Z" fill="#F8D568"/>
<path d="M15 59H19V55H23V51H19V47H15V51H11V55H15V59Z" fill="#F8D568"/>
<path d="M25 38H29V34H33V30H29V26H25V30H21V34H25V38Z" fill="#F8D568"/>
<path d="M44 47H48V43H52V39H48V35H44V39H40V43H44V47Z" fill="#F8D568"/>
<path d="M45 23H49V19H53V15H49V11H45V15H41V19H45V23Z" fill="#F8D568"/>
<path d="M60 36H64V32H68V28H64V24H60V28H56V32H60V36Z" fill="#F8D568"/>
<path d="M68 18H72V14H76V10H72V6H68V10H64V14H68V18Z" fill="#F8D568"/>
<path d="M29 17H33V13H37V9H33V5H29V9H25V13H29V17Z" fill="#F8D568"/>
<path d="M86 28H90V24H94V20H90V16H86V20H82V24H86V28Z" fill="#F8D568"/>
<path d="M32 78L26 66L20 78H32Z" fill="#F8D568"/>
<path d="M45 90H57L51 78L45 90Z" fill="#F8D568"/>
<path d="M58 57L52 69H64L58 57Z" fill="#F8D568"/>
<path d="M68 78H80L74 66L68 78Z" fill="#F8D568"/>
<path d="M82 81L76 93H88L82 81Z" fill="#F8D568"/>
<path d="M87 47L81 59H93L87 47Z" fill="#F8D568"/>
<path d="M95 34.65L93.425 31L7 69.35L8.575 73L95 34.65Z" fill="#F8D568"/>
</svg>
