<svg width="60" height="64" viewBox="0 0 60 64" fill="none" xmlns="http://www.w3.org/2000/svg">
<path d="M58.5 46.6L55.5 45.9C55.3 45.2 55 44.5 54.6 43.8L56.2 41.1C56.4 40.7 56.4 40.2 56.1 39.9L53.8 37.6C53.5 37.3 53 37.2 52.6 37.5L49.9 39C49.2 38.6 48.5 38.3 47.8 38.1L47.1 35.1C47 34.6 46.6 34.3 46.1 34.3H44.9V25.4C44.9 25.4 44.9 25.4 44.9 25.3V13.2C44.9 5.8 35.2 0 22.8 0C10.4 0 0.699997 5.8 0.699997 13.2V25.4V37.6V49.8C0.699997 57.2 10.4 63 22.8 63C27.2 63 31.5 62.2 35.1 60.8C35.4 61.1 35.9 61.2 36.3 60.9L38.9 59.3C39.6 59.7 40.3 60 41 60.2L41.7 63.2C41.8 63.7 42.2 64 42.7 64H46C46.5 64 46.9 63.7 47 63.2L47.7 60.2C48.4 60 49.2 59.7 49.8 59.3L52.4 60.9C52.8 61.1 53.3 61.1 53.6 60.8L55.9 58.5C56.2 58.2 56.3 57.7 56 57.3L54.4 54.7C54.8 54 55.1 53.3 55.3 52.6L58.3 51.9C58.8 51.8 59.1 51.4 59.1 50.9V47.6C59.3 47.1 59 46.7 58.5 46.6ZM22.8 2C33.9 2 42.9 7 42.9 13.2C42.9 19.4 33.9 24.4 22.8 24.4C11.7 24.4 2.7 19.4 2.7 13.2C2.7 7 11.7 2 22.8 2ZM3.4 19.6L3.5 19.7C3.7 19.9 3.9 20.1 4.1 20.3C4.2 20.4 4.2 20.4 4.3 20.5C4.5 20.7 4.8 21 5.1 21.2C5.1 21.2 5.1 21.2 5.2 21.3C5.5 21.5 5.7 21.7 6 21.9C6.1 22 6.2 22 6.2 22.1C6.5 22.3 6.8 22.5 7.1 22.7C7.1 22.7 7.1 22.7 7.2 22.7C7.5 22.9 7.9 23.1 8.2 23.3C8.3 23.3 8.4 23.4 8.5 23.4C8.8 23.6 9.1 23.7 9.4 23.8C9.5 23.8 9.5 23.9 9.6 23.9C10 24.1 10.3 24.2 10.7 24.4C10.8 24.4 10.9 24.5 11 24.5C11.3 24.6 11.6 24.7 12 24.8C12.1 24.8 12.2 24.9 12.3 24.9C12.7 25 13.1 25.2 13.5 25.3C13.6 25.3 13.7 25.4 13.8 25.4C14.1 25.5 14.5 25.6 14.8 25.7C14.9 25.7 15 25.8 15.1 25.8C15.5 25.9 16 26 16.4 26.1C16.5 26.1 16.6 26.1 16.7 26.1C17.1 26.2 17.5 26.2 17.9 26.3C18 26.3 18.1 26.3 18.3 26.3C18.8 26.4 19.2 26.4 19.7 26.5C19.8 26.5 19.8 26.5 19.9 26.5C20.3 26.5 20.8 26.6 21.2 26.6C21.3 26.6 21.5 26.6 21.6 26.6C22.1 26.6 22.6 26.6 23.1 26.6C23.6 26.6 24.1 26.6 24.6 26.6C24.7 26.6 24.9 26.6 25 26.6C25.4 26.6 25.9 26.6 26.3 26.5C26.4 26.5 26.4 26.5 26.5 26.5C27 26.5 27.4 26.4 27.9 26.3C28 26.3 28.1 26.3 28.3 26.3C28.7 26.2 29.1 26.2 29.5 26.1C29.6 26.1 29.7 26.1 29.8 26.1C30.2 26 30.7 25.9 31.1 25.8C31.2 25.8 31.3 25.8 31.4 25.7C31.8 25.6 32.1 25.5 32.4 25.4C32.5 25.4 32.6 25.3 32.7 25.3C33.1 25.2 33.5 25.1 33.9 24.9C34 24.9 34.1 24.8 34.2 24.8C34.5 24.7 34.8 24.6 35.2 24.5C35.3 24.5 35.4 24.4 35.5 24.4C35.9 24.3 36.2 24.1 36.6 23.9C36.7 23.9 36.7 23.8 36.8 23.8C37.1 23.7 37.4 23.5 37.7 23.4C37.8 23.4 37.9 23.3 38 23.3C38.3 23.1 38.7 22.9 39 22.7C39 22.7 39 22.7 39.1 22.7C39.4 22.5 39.7 22.3 40 22.1C40.1 22 40.2 22 40.2 21.9C40.5 21.7 40.7 21.5 41 21.3C41 21.3 41 21.3 41.1 21.2C41.4 21 41.6 20.8 41.9 20.5C42 20.4 42 20.4 42.1 20.3C42.3 20.1 42.5 19.9 42.7 19.7L42.8 19.6C43 19.4 43.2 19.1 43.4 18.9C43.4 18.9 43.4 18.9 43.5 18.8V25.4C43.5 31.6 34.5 36.6 23.4 36.6C12.3 36.6 3.3 31.6 3.3 25.4V18.8C3.3 18.8 3.3 18.8 3.4 18.9C2.9 19.1 3.1 19.4 3.4 19.6ZM22.8 38.6C31.8 38.6 39.4 35.5 42.9 31V34.4C42.4 34.4 42 34.7 41.9 35.2L41.2 38.2C40.5 38.4 39.7 38.7 39.1 39.1L36.5 37.5C36.1 37.3 35.6 37.3 35.3 37.6L33 39.9C32.7 40.2 32.6 40.7 32.9 41.1L34.5 43.7C34.1 44.4 33.8 45.1 33.6 45.8L30.6 46.5C30.1 46.6 29.8 47 29.8 47.5V48.1C28.2 48.4 25.7 48.8 22.9 48.8C11.8 48.8 2.8 43.8 2.8 37.6V31C6.1 35.5 13.8 38.6 22.8 38.6ZM22.8 61C11.7 61 2.7 56 2.7 49.8V43.2C6.2 47.7 13.8 50.8 22.8 50.8C25.4 50.8 27.9 50.5 29.7 50.2V50.8C29.7 51.3 30 51.7 30.5 51.8L33.5 52.5C33.7 53.2 34 54 34.4 54.6L32.8 57.3C32.6 57.7 32.6 58.2 32.9 58.5L33.6 59.2C30.4 60.4 26.7 61 22.8 61ZM57.3 50L54.5 50.7C54.1 50.8 53.8 51.1 53.8 51.4C53.6 52.4 53.2 53.3 52.7 54.1C52.5 54.4 52.5 54.8 52.7 55.1L54.2 57.6L53 58.8L50.5 57.3C50.2 57.1 49.8 57.1 49.4 57.3C48.6 57.8 47.7 58.2 46.7 58.4C46.3 58.5 46 58.8 46 59.1L45.3 62H43.6L43 59.2C42.9 58.8 42.6 58.5 42.3 58.5C41.3 58.3 40.4 57.9 39.6 57.4C39.3 57.2 38.9 57.2 38.6 57.4L36 58.8L34.8 57.6L36.3 55.1C36.5 54.8 36.5 54.4 36.3 54C35.8 53.2 35.4 52.3 35.2 51.3C35.1 50.9 34.8 50.6 34.5 50.6L31.7 50V48.3L34.5 47.6C34.9 47.5 35.2 47.2 35.2 46.9C35.4 45.9 35.8 45 36.3 44.2C36.5 43.9 36.5 43.5 36.3 43.2L34.8 40.7L36 39.5L38.5 41C38.8 41.2 39.2 41.2 39.5 41C40.3 40.5 41.2 40.1 42.2 39.9C42.6 39.8 42.9 39.5 42.9 39.2L43.6 36.4H45.3L46 39.2C46.1 39.6 46.4 39.9 46.7 39.9C47.7 40.1 48.6 40.5 49.4 41C49.7 41.2 50.1 41.2 50.5 41L53 39.5L54.2 40.7L52.7 43.2C52.5 43.5 52.5 43.9 52.7 44.2C53.2 45.1 53.6 46 53.8 46.9C53.9 47.3 54.2 47.6 54.5 47.6L57.3 48.3V50Z" fill="#F8D568"/>
<path d="M44.5 44C41.6 44 39.3 46.3 39.3 49.2C39.3 52.1 41.6 54.4 44.5 54.4C47.4 54.4 49.7 52.1 49.7 49.2C49.7 46.3 47.3 44 44.5 44ZM44.5 52.4C42.7 52.4 41.3 51 41.3 49.2C41.3 47.4 42.7 46 44.5 46C46.3 46 47.7 47.4 47.7 49.2C47.7 51 46.2 52.4 44.5 52.4Z" fill="#F8D568"/>
</svg>
