<svg width="166" height="166" viewBox="0 0 166 166" fill="none" xmlns="http://www.w3.org/2000/svg">
<path d="M42.0533 164.893C42.6067 165.723 43.4367 166 44.2667 166C44.82 166 45.3733 165.723 45.9267 165.447L83 136.397L120.073 165.447C120.627 165.723 121.18 166 121.733 166C122.563 166 123.393 165.723 123.947 164.893C124.777 163.787 124.777 161.85 123.393 161.02L91.0234 135.567H99.6V130.033H66.4V135.567H74.9767L42.6067 161.02C41.2233 162.127 41.2233 163.787 42.0533 164.893Z" fill="#F8D568"/>
<path d="M27.6667 124.5H146.633H163.233C164.893 124.5 166 123.393 166 121.733C166 120.073 164.893 118.967 163.233 118.967H149.4V19.3667H163.233C164.893 19.3667 166 18.26 166 16.6C166 14.94 164.893 13.8333 163.233 13.8333H146.633H85.7667V2.76667C85.7667 1.10667 84.66 0 83 0C81.34 0 80.2333 1.10667 80.2333 2.76667V13.8333H27.6667H22.1333H2.76667C1.10667 13.8333 0 14.94 0 16.6C0 18.26 1.10667 19.3667 2.76667 19.3667H19.3667V118.967H2.76667C1.10667 118.967 0 120.073 0 121.733C0 123.393 1.10667 124.5 2.76667 124.5H22.1333H27.6667ZM24.9 19.3667H27.6667H143.867V118.967H27.6667H24.9V19.3667Z" fill="#F8D568"/>
<path d="M59.4833 83C75.53 83 88.5333 69.9967 88.5333 53.95C88.5333 37.9033 75.53 24.9 59.4833 24.9C43.4367 24.9 30.4333 37.9033 30.4333 53.95C30.4333 69.9967 43.4367 83 59.4833 83ZM60.8667 30.4333C71.6567 30.9867 80.7867 39.2867 82.7233 49.8H60.8667V30.4333ZM83 55.3333C82.17 67.7833 71.9333 77.4667 59.4833 77.4667C53.95 77.4667 48.97 75.53 44.82 72.21L59.4833 55.3333H83ZM55.3333 30.71V51.46L40.9467 68.3367C37.9033 64.4633 35.9667 59.4833 35.9667 53.95C35.9667 42.33 44.2667 32.9233 55.3333 30.71Z" fill="#F8D568"/>
<path d="M102.367 83H113.433C115.093 83 116.2 81.8933 116.2 80.2333V41.5C116.2 39.84 115.093 38.7333 113.433 38.7333H102.367C100.707 38.7333 99.6 39.84 99.6 41.5V80.2333C99.6 81.8933 100.707 83 102.367 83ZM105.133 44.2667H110.667V77.4667H105.133V44.2667Z" fill="#F8D568"/>
<path d="M124.5 83H135.567C137.227 83 138.333 81.8933 138.333 80.2333V30.4333C138.333 28.7733 137.227 27.6667 135.567 27.6667H124.5C122.84 27.6667 121.733 28.7733 121.733 30.4333V80.2333C121.733 81.8933 122.84 83 124.5 83ZM127.267 33.2H132.8V77.4667H127.267V33.2Z" fill="#F8D568"/>
<path d="M113.433 96.8333H60.8667V102.367H113.433V96.8333Z" fill="#F8D568"/>
<path d="M85.7667 107.9H66.4V113.433H85.7667V107.9Z" fill="#F8D568"/>
<path d="M107.9 107.9H99.6V113.433H107.9V107.9Z" fill="#F8D568"/>
</svg>
