<svg width="91" height="150" viewBox="0 0 91 150" fill="none" xmlns="http://www.w3.org/2000/svg">
<path d="M89.149 0.234985H2.18801C1.35101 0.234985 0.669006 0.916984 0.669006 1.75498V66.389C0.669006 67.228 1.35101 67.909 2.18801 67.909H89.15C89.988 67.909 90.669 67.228 90.669 66.389V1.75498C90.668 0.916984 89.987 0.234985 89.149 0.234985ZM89.84 19.901V33.571V34.071V34.571V66.388C89.84 66.769 89.529 67.079 89.15 67.079H2.18801C1.80801 67.079 1.49801 66.768 1.49801 66.388V34.571V33.571V14.06H89.84V19.901ZM5.49801 9.63298V11.018H4.36101V11.574L2.93001 10.326L4.36101 9.07698V9.63399H5.49801V9.63298ZM6.73501 11.018V9.63298H7.87201V9.07698L9.30201 10.326L7.87101 11.575V11.018H6.73501ZM11.32 10.859V11.652H10.562V10.258H10.074L11.588 8.86198L13.103 10.258H12.614V11.652H11.838V10.859H11.32ZM14.565 11.494V9.19699C14.565 9.01199 14.715 8.86198 14.9 8.86198H83.221C83.406 8.86198 83.556 9.01299 83.556 9.19699V11.494C83.556 11.679 83.406 11.83 83.221 11.83H14.901C14.716 11.83 14.565 11.679 14.565 11.494ZM86.92 9.47898C86.833 9.44798 86.742 9.43299 86.645 9.43299C86.533 9.43299 86.425 9.45498 86.327 9.49798C86.225 9.54198 86.139 9.60098 86.064 9.67498C85.989 9.74998 85.93 9.83699 85.886 9.93699C85.843 10.038 85.822 10.144 85.822 10.256C85.822 10.369 85.843 10.475 85.886 10.576C85.93 10.677 85.989 10.764 86.064 10.838C86.138 10.912 86.225 10.971 86.327 11.015C86.426 11.058 86.533 11.08 86.645 11.08C86.784 11.08 86.915 11.048 87.036 10.985C87.156 10.922 87.255 10.832 87.33 10.717C87.342 10.699 87.358 10.688 87.38 10.684C87.401 10.68 87.419 10.684 87.435 10.695L87.785 10.94C87.801 10.948 87.808 10.962 87.812 10.984C87.818 11 87.815 11.017 87.803 11.035C87.738 11.132 87.662 11.219 87.577 11.295C87.492 11.372 87.399 11.436 87.301 11.488C87.201 11.541 87.096 11.581 86.985 11.609C86.875 11.637 86.762 11.651 86.646 11.651C86.455 11.651 86.273 11.614 86.104 11.541C85.934 11.468 85.787 11.368 85.661 11.242C85.535 11.116 85.435 10.968 85.362 10.799C85.288 10.629 85.252 10.448 85.252 10.256C85.252 10.064 85.288 9.88299 85.362 9.71399C85.435 9.54499 85.535 9.39698 85.661 9.27098C85.787 9.14498 85.934 9.04498 86.104 8.97198C86.273 8.89898 86.455 8.86198 86.646 8.86198C86.838 8.86198 87.018 8.89898 87.187 8.97198C87.354 9.04498 87.5 9.14498 87.628 9.27198L87.646 9.25698L87.881 9.08998C87.899 9.07598 87.919 9.07398 87.944 9.08398C87.965 9.09798 87.976 9.11498 87.976 9.13698L87.978 10.193C87.978 10.213 87.971 10.229 87.956 10.241C87.937 10.253 87.92 10.256 87.899 10.25L86.899 9.90799C86.877 9.89999 86.861 9.88399 86.858 9.85999C86.853 9.83599 86.861 9.81798 86.881 9.80298L87.116 9.63698L87.155 9.60699C87.084 9.55299 87.007 9.50898 86.92 9.47898ZM89.84 6.57398H1.49701V1.75498C1.49701 1.37398 1.80701 1.06398 2.18701 1.06398H89.149C89.529 1.06398 89.839 1.37398 89.839 1.75498L89.84 6.57398Z" fill="#F8D568"/>
<path d="M82.035 4.66499C82.5022 4.66499 82.881 4.28623 82.881 3.81899C82.881 3.35176 82.5022 2.97299 82.035 2.97299C81.5678 2.97299 81.189 3.35176 81.189 3.81899C81.189 4.28623 81.5678 4.66499 82.035 4.66499Z" fill="#F8D568"/>
<path d="M84.573 4.66499C85.0402 4.66499 85.419 4.28623 85.419 3.81899C85.419 3.35176 85.0402 2.97299 84.573 2.97299C84.1058 2.97299 83.727 3.35176 83.727 3.81899C83.727 4.28623 84.1058 4.66499 84.573 4.66499Z" fill="#F8D568"/>
<path d="M87.112 4.66499C87.5792 4.66499 87.958 4.28623 87.958 3.81899C87.958 3.35176 87.5792 2.97299 87.112 2.97299C86.6448 2.97299 86.266 3.35176 86.266 3.81899C86.266 4.28623 86.6448 4.66499 87.112 4.66499Z" fill="#F8D568"/>
<path d="M82.454 22.727L77.977 26.986L74.168 23.855L69.622 25.83L65.122 28.963L59.16 29.779L53.011 26.112L46.663 31.049L38.623 32.107L35.802 28.963L31.474 30.062L27.242 23.855L21.079 30.344L16.785 28.933L11.588 31.502L7.96401 28.933L2.12601 33.571H89.84V19.901L86.613 25.125L82.454 22.727Z" fill="#F8D568"/>
<path d="M1.49701 33.571V34.571H89.84V34.071V33.571H2.12601H1.49701Z" fill="#F8D568"/>
<path d="M72.809 50.237V40.901C67.698 41.014 63.586 45.185 63.586 50.325C63.586 52.853 64.587 55.145 66.207 56.84L72.809 50.237Z" fill="#F8D568"/>
<path d="M73.021 59.759C78.232 59.759 82.455 55.536 82.455 50.325C82.455 45.185 78.345 41.014 73.232 40.901V50.325C73.232 50.384 73.209 50.436 73.17 50.474L66.506 57.138C68.2 58.759 70.491 59.759 73.021 59.759Z" fill="#F8D568"/>
<path d="M12.6 59.759C13.569 59.759 14.352 58.979 14.352 58.012C14.352 57.676 14.253 57.36 14.087 57.095L21.328 49.847C21.597 50.014 21.911 50.113 22.25 50.113C22.729 50.113 23.165 49.919 23.48 49.605L31.294 54.496C31.233 54.673 31.199 54.864 31.199 55.06C31.199 56.031 31.979 56.811 32.947 56.811C33.913 56.811 34.696 56.03 34.696 55.06C34.696 54.816 34.648 54.587 34.559 54.377L43.06 48.141C43.366 48.402 43.763 48.561 44.199 48.561C45.164 48.561 45.945 47.778 45.945 46.812C45.945 45.844 45.164 45.062 44.199 45.062C43.229 45.062 42.449 45.846 42.449 46.812C42.449 47.056 42.497 47.287 42.585 47.498L34.086 53.733C33.779 53.468 33.383 53.312 32.948 53.312C32.471 53.312 32.032 53.505 31.718 53.821L23.906 48.926C23.965 48.75 24 48.561 24 48.362C24 47.396 23.215 46.613 22.25 46.613C21.282 46.613 20.499 47.396 20.499 48.362C20.499 48.701 20.598 49.015 20.764 49.282L13.52 56.525C13.254 56.359 12.938 56.261 12.6 56.261C11.634 56.261 10.851 57.047 10.851 58.009C10.853 58.979 11.635 59.759 12.6 59.759Z" fill="#F8D568"/>
</svg>
