<svg width="61" height="40" viewBox="0 0 56 32" fill="none" xmlns="http://www.w3.org/2000/svg">
<path d="M14.3609 1V6.67216C14.3609 7.1344 13.9769 7.51684 13.5162 7.51684H7.22548M14.0393 1H25.9847C26.8511 1 27.561 1.7128 27.561 2.57344V24.4853C27.561 25.3474 26.8482 26.0586 25.9847 26.0586H8.79892C7.93972 26.0586 7.22548 25.3487 7.22548 24.4853V7.30372L14.0393 1Z" stroke="#F4D56F" stroke-width="1.2" stroke-miterlimit="2.613" stroke-linecap="round" stroke-linejoin="round"/>
<path fill-rule="evenodd" clip-rule="evenodd" d="M36.306 20.0808C36.8001 20.4924 37.0479 21.1298 37.0479 21.9846C37.0479 22.8437 36.7929 23.474 36.2902 23.8738C35.786 24.2709 35.0138 24.4737 33.9722 24.4737H32.7131V26.5527H31.5164V19.4607H33.9519C35.0282 19.4608 35.812 19.6694 36.306 20.0808ZM35.4599 23.0104C35.699 22.754 35.8176 22.3816 35.8176 21.8904C35.8176 21.3993 35.667 21.0516 35.3627 20.8487C35.0555 20.6459 34.5819 20.5445 33.9285 20.5445H32.7129V23.3871H34.1038C34.766 23.3871 35.2179 23.2595 35.4599 23.0104ZM43.8238 20.3909C44.5077 21.0052 44.8481 21.8687 44.8481 22.9727C44.8481 24.0724 44.5163 24.946 43.8556 25.5893C43.1921 26.2326 42.178 26.5528 40.8102 26.5528H38.456V19.4608H40.8914C42.1635 19.4608 43.1415 19.7679 43.8238 20.3909ZM43.6414 23.0018C43.6414 21.3791 42.7097 20.5648 40.8509 20.5648H39.6542V25.4271H40.9827C41.8403 25.4271 42.4996 25.2227 42.9574 24.8156C43.4139 24.4041 43.6414 23.8014 43.6414 23.0018ZM47.5864 20.5764V22.525H50.7332V23.6304H47.5864V26.5527H46.3896V19.4608H51.1186L51.1084 20.5764H47.5864Z" fill="#F4D56F"/>
<path d="M31.5726 15.2912H52.6847C53.9656 15.2912 55 16.3286 55 17.6063V28.4073C55 29.685 53.9656 30.7196 52.6847 30.7196M52.6847 30.7194H3.31516C2.0374 30.7194 1 29.685 1 28.4072V17.6063C1 16.3286 2.0374 15.2912 3.31516 15.2912M17.6019 8.2846V22.3005M17.6019 22.3005L22.038 17.8626M17.6019 22.3005L12.7484 17.4441" stroke="#F8D568" stroke-width="1.2" stroke-miterlimit="2.613" stroke-linecap="round" stroke-linejoin="round"/>
</svg>
