<svg width="92" height="150" viewBox="0 0 92 150" fill="none" xmlns="http://www.w3.org/2000/svg">
<path d="M37.39 40.87C37.39 40.2114 37.1947 39.5676 36.8288 39.02C36.4629 38.4723 35.9428 38.0455 35.3343 37.7935C34.7259 37.5415 34.0563 37.4755 33.4104 37.604C32.7644 37.7325 32.1711 38.0496 31.7053 38.5153C31.2396 38.9811 30.9225 39.5744 30.794 40.2204C30.6655 40.8663 30.7315 41.5359 30.9835 42.1443C31.2355 42.7528 31.6623 43.2729 32.21 43.6388C32.7576 44.0047 33.4014 44.2 34.06 44.2C34.9424 44.1974 35.7878 43.8457 36.4118 43.2218C37.0357 42.5978 37.3874 41.7524 37.39 40.87ZM31.73 40.87C31.73 40.4092 31.8667 39.9587 32.1227 39.5755C32.3787 39.1924 32.7426 38.8937 33.1684 38.7174C33.5941 38.541 34.0626 38.4949 34.5146 38.5848C34.9665 38.6747 35.3817 38.8966 35.7076 39.2225C36.0334 39.5483 36.2553 39.9635 36.3452 40.4155C36.4351 40.8674 36.389 41.3359 36.2127 41.7617C36.0363 42.1874 35.7377 42.5513 35.3545 42.8073C34.9713 43.0634 34.5208 43.2 34.06 43.2C33.4421 43.2 32.8494 42.9545 32.4125 42.5176C31.9755 42.0806 31.73 41.488 31.73 40.87Z" fill="#F8D568"/>
<path d="M35.39 15.87C35.39 15.2114 35.1947 14.5676 34.8288 14.02C34.4629 13.4723 33.9428 13.0455 33.3343 12.7935C32.7259 12.5415 32.0563 12.4755 31.4104 12.604C30.7644 12.7325 30.1711 13.0496 29.7053 13.5153C29.2396 13.9811 28.9225 14.5744 28.794 15.2204C28.6655 15.8663 28.7315 16.5359 28.9835 17.1443C29.2355 17.7528 29.6623 18.2729 30.21 18.6388C30.7576 19.0047 31.4014 19.2 32.06 19.2C32.9424 19.1974 33.7878 18.8457 34.4118 18.2218C35.0357 17.5978 35.3874 16.7524 35.39 15.87ZM29.73 15.87C29.73 15.4092 29.8667 14.9587 30.1227 14.5755C30.3787 14.1924 30.7426 13.8937 31.1684 13.7174C31.5941 13.541 32.0626 13.4949 32.5146 13.5848C32.9665 13.6747 33.3817 13.8966 33.7076 14.2225C34.0334 14.5483 34.2553 14.9635 34.3452 15.4154C34.4351 15.8674 34.389 16.3359 34.2127 16.7617C34.0363 17.1874 33.7377 17.5513 33.3545 17.8073C32.9713 18.0634 32.5208 18.2 32.06 18.2C31.754 18.2 31.451 18.1397 31.1684 18.0227C30.8857 17.9056 30.6288 17.7339 30.4125 17.5176C30.1961 17.3012 30.0245 17.0444 29.9074 16.7617C29.7903 16.479 29.73 16.176 29.73 15.87Z" fill="#F8D568"/>
<path d="M13.39 25.87C13.39 25.2114 13.1947 24.5676 12.8288 24.02C12.4629 23.4723 11.9428 23.0455 11.3343 22.7935C10.7259 22.5415 10.0563 22.4755 9.41036 22.604C8.7644 22.7325 8.17106 23.0496 7.70535 23.5153C7.23964 23.9811 6.92249 24.5744 6.794 25.2204C6.66551 25.8663 6.73145 26.5359 6.98349 27.1443C7.23553 27.7528 7.66235 28.2729 8.20996 28.6388C8.75758 29.0047 9.4014 29.2 10.06 29.2C10.9424 29.1974 11.7878 28.8457 12.4118 28.2218C13.0357 27.5978 13.3874 26.7524 13.39 25.87ZM7.73001 25.87C7.73001 25.4092 7.86666 24.9587 8.12269 24.5755C8.37871 24.1924 8.74261 23.8937 9.16836 23.7174C9.59411 23.541 10.0626 23.4949 10.5146 23.5848C10.9665 23.6747 11.3817 23.8966 11.7076 24.2225C12.0334 24.5483 12.2553 24.9635 12.3452 25.4154C12.4351 25.8674 12.389 26.3359 12.2127 26.7617C12.0363 27.1874 11.7377 27.5513 11.3545 27.8073C10.9713 28.0634 10.5208 28.2 10.06 28.2C9.75403 28.2 9.45105 28.1397 9.16836 28.0227C8.88567 27.9056 8.62881 27.7339 8.41245 27.5176C8.19609 27.3012 8.02447 27.0444 7.90737 26.7617C7.79028 26.479 7.73001 26.176 7.73001 25.87Z" fill="#F8D568"/>
<path d="M27.39 32.87C27.39 32.2114 27.1947 31.5676 26.8288 31.02C26.4629 30.4723 25.9428 30.0455 25.3343 29.7935C24.7259 29.5415 24.0563 29.4755 23.4104 29.604C22.7644 29.7325 22.1711 30.0496 21.7053 30.5153C21.2396 30.9811 20.9225 31.5744 20.794 32.2204C20.6655 32.8663 20.7315 33.5359 20.9835 34.1443C21.2355 34.7528 21.6623 35.2729 22.21 35.6388C22.7576 36.0047 23.4014 36.2 24.06 36.2C24.9424 36.1974 25.7878 35.8457 26.4118 35.2218C27.0357 34.5978 27.3874 33.7524 27.39 32.87ZM21.73 32.87C21.73 32.4092 21.8667 31.9587 22.1227 31.5755C22.3787 31.1924 22.7426 30.8937 23.1684 30.7174C23.5941 30.541 24.0626 30.4949 24.5146 30.5848C24.9665 30.6747 25.3817 30.8966 25.7076 31.2225C26.0334 31.5483 26.2553 31.9635 26.3452 32.4155C26.4351 32.8674 26.389 33.3359 26.2127 33.7617C26.0363 34.1874 25.7377 34.5513 25.3545 34.8073C24.9713 35.0634 24.5208 35.2 24.06 35.2C23.4421 35.2 22.8494 34.9545 22.4125 34.5176C21.9755 34.0806 21.73 33.488 21.73 32.87Z" fill="#F8D568"/>
<path d="M19.39 49.87C19.39 49.2114 19.1947 48.5676 18.8288 48.02C18.4629 47.4723 17.9428 47.0455 17.3343 46.7935C16.7259 46.5415 16.0563 46.4755 15.4104 46.604C14.7644 46.7325 14.1711 47.0496 13.7053 47.5153C13.2396 47.9811 12.9225 48.5744 12.794 49.2204C12.6655 49.8663 12.7315 50.5359 12.9835 51.1443C13.2355 51.7528 13.6623 52.2729 14.21 52.6388C14.7576 53.0047 15.4014 53.2 16.06 53.2C16.9424 53.1974 17.7878 52.8457 18.4118 52.2218C19.0357 51.5978 19.3874 50.7524 19.39 49.87ZM13.73 49.87C13.73 49.4092 13.8667 48.9587 14.1227 48.5755C14.3787 48.1924 14.7426 47.8937 15.1684 47.7174C15.5941 47.541 16.0626 47.4949 16.5146 47.5848C16.9665 47.6747 17.3817 47.8966 17.7076 48.2225C18.0334 48.5483 18.2553 48.9635 18.3452 49.4155C18.4351 49.8674 18.389 50.3359 18.2127 50.7617C18.0363 51.1874 17.7377 51.5513 17.3545 51.8073C16.9713 52.0634 16.5208 52.2 16.06 52.2C15.4421 52.2 14.8494 51.9545 14.4125 51.5176C13.9755 51.0806 13.73 50.488 13.73 49.87Z" fill="#F8D568"/>
<path d="M45.48 76.07C47.2473 76.07 48.68 74.6373 48.68 72.87C48.68 71.1027 47.2473 69.67 45.48 69.67C43.7127 69.67 42.28 71.1027 42.28 72.87C42.28 74.6373 43.7127 76.07 45.48 76.07Z" fill="#F8D568"/>
<path d="M40.48 63.07C42.2473 63.07 43.68 61.6373 43.68 59.87C43.68 58.1027 42.2473 56.67 40.48 56.67C38.7127 56.67 37.28 58.1027 37.28 59.87C37.28 61.6373 38.7127 63.07 40.48 63.07Z" fill="#F8D568"/>
<path d="M60.48 67.07C62.2473 67.07 63.68 65.6373 63.68 63.87C63.68 62.1027 62.2473 60.67 60.48 60.67C58.7127 60.67 57.28 62.1027 57.28 63.87C57.28 65.6373 58.7127 67.07 60.48 67.07Z" fill="#F8D568"/>
<path d="M25.48 79.07C27.2473 79.07 28.68 77.6373 28.68 75.87C28.68 74.1027 27.2473 72.67 25.48 72.67C23.7127 72.67 22.28 74.1027 22.28 75.87C22.28 77.6373 23.7127 79.07 25.48 79.07Z" fill="#F8D568"/>
<path d="M66.48 84.07C68.2473 84.07 69.68 82.6373 69.68 80.87C69.68 79.1027 68.2473 77.67 66.48 77.67C64.7127 77.67 63.28 79.1027 63.28 80.87C63.28 82.6373 64.7127 84.07 66.48 84.07Z" fill="#F8D568"/>
<path d="M54.06 20.54C53.4014 20.54 52.7576 20.7353 52.21 21.1012C51.6623 21.4671 51.2355 21.9872 50.9835 22.5957C50.7315 23.2042 50.6655 23.8737 50.794 24.5197C50.9225 25.1656 51.2396 25.759 51.7053 26.2247C52.1711 26.6904 52.7644 27.0075 53.4104 27.136C54.0563 27.2645 54.7259 27.1986 55.3343 26.9465C55.9428 26.6945 56.4629 26.2677 56.8288 25.7201C57.1947 25.1724 57.39 24.5286 57.39 23.87C57.39 22.9868 57.0392 22.1398 56.4147 21.5153C55.7902 20.8908 54.9432 20.54 54.06 20.54ZM54.06 26.2V21.54C54.678 21.54 55.2706 21.7855 55.7076 22.2224C56.1445 22.6594 56.39 23.2521 56.39 23.87C56.39 24.488 56.1445 25.0806 55.7076 25.5176C55.2706 25.9545 54.678 26.2 54.06 26.2Z" fill="#F8D568"/>
<path d="M72.06 31.54C71.4014 31.54 70.7576 31.7353 70.21 32.1012C69.6624 32.4671 69.2355 32.9872 68.9835 33.5957C68.7315 34.2042 68.6655 34.8737 68.794 35.5197C68.9225 36.1656 69.2396 36.759 69.7054 37.2247C70.1711 37.6904 70.7644 38.0075 71.4104 38.136C72.0563 38.2645 72.7259 38.1986 73.3343 37.9465C73.9428 37.6945 74.4629 37.2677 74.8288 36.7201C75.1947 36.1724 75.39 35.5286 75.39 34.87C75.39 33.9868 75.0392 33.1398 74.4147 32.5153C73.7902 31.8908 72.9432 31.54 72.06 31.54ZM72.06 37.2V32.54C72.678 32.54 73.2706 32.7855 73.7076 33.2225C74.1445 33.6594 74.39 34.2521 74.39 34.87C74.39 35.488 74.1445 36.0806 73.7076 36.5176C73.2706 36.9545 72.678 37.2 72.06 37.2Z" fill="#F8D568"/>
<path d="M80.06 13.54C79.4014 13.54 78.7576 13.7353 78.21 14.1012C77.6624 14.4671 77.2355 14.9872 76.9835 15.5957C76.7315 16.2042 76.6655 16.8737 76.794 17.5197C76.9225 18.1656 77.2396 18.759 77.7054 19.2247C78.1711 19.6904 78.7644 20.0075 79.4104 20.136C80.0563 20.2645 80.7259 20.1986 81.3343 19.9465C81.9428 19.6945 82.4629 19.2677 82.8288 18.7201C83.1947 18.1724 83.39 17.5286 83.39 16.87C83.39 15.9868 83.0392 15.1398 82.4147 14.5153C81.7902 13.8908 80.9432 13.54 80.06 13.54ZM80.06 19.2V14.54C80.678 14.54 81.2706 14.7855 81.7076 15.2224C82.1445 15.6594 82.39 16.2521 82.39 16.87C82.39 17.488 82.1445 18.0806 81.7076 18.5176C81.2706 18.9545 80.678 19.2 80.06 19.2Z" fill="#F8D568"/>
<path d="M58.06 39.54C57.4014 39.54 56.7576 39.7353 56.21 40.1012C55.6623 40.4671 55.2355 40.9872 54.9835 41.5957C54.7315 42.2042 54.6655 42.8737 54.794 43.5197C54.9225 44.1656 55.2396 44.759 55.7053 45.2247C56.1711 45.6904 56.7644 46.0075 57.4104 46.136C58.0563 46.2645 58.7259 46.1986 59.3343 45.9465C59.9428 45.6945 60.4629 45.2677 60.8288 44.7201C61.1947 44.1724 61.39 43.5286 61.39 42.87C61.39 41.9868 61.0392 41.1398 60.4147 40.5153C59.7902 39.8908 58.9432 39.54 58.06 39.54ZM58.06 45.2V40.54C58.678 40.54 59.2706 40.7855 59.7076 41.2225C60.1445 41.6594 60.39 42.2521 60.39 42.87C60.39 43.488 60.1445 44.0806 59.7076 44.5176C59.2706 44.9545 58.678 45.2 58.06 45.2Z" fill="#F8D568"/>
<path d="M79.06 47.54C78.4014 47.54 77.7576 47.7353 77.21 48.1012C76.6624 48.4671 76.2355 48.9872 75.9835 49.5957C75.7315 50.2042 75.6655 50.8737 75.794 51.5197C75.9225 52.1656 76.2396 52.759 76.7054 53.2247C77.1711 53.6904 77.7644 54.0075 78.4104 54.136C79.0563 54.2645 79.7259 54.1986 80.3343 53.9465C80.9428 53.6945 81.4629 53.2677 81.8288 52.7201C82.1947 52.1724 82.39 51.5286 82.39 50.87C82.39 49.9868 82.0392 49.1398 81.4147 48.5153C80.7902 47.8908 79.9432 47.54 79.06 47.54ZM79.06 53.2V48.54C79.678 48.54 80.2706 48.7855 80.7076 49.2225C81.1445 49.6594 81.39 50.2521 81.39 50.87C81.39 51.488 81.1445 52.0806 80.7076 52.5176C80.2706 52.9545 79.678 53.2 79.06 53.2Z" fill="#F8D568"/>
<path d="M91.24 70.42L46.38 44.75V0.0299988H45.38V44.75L0.630005 70.69L1.13 71.56L45.88 45.62L90.74 71.29L91.24 70.42Z" fill="#F8D568"/>
</svg>
