<svg width="1568" height="1568" viewBox="0 0 1568 1568" fill="none" xmlns="http://www.w3.org/2000/svg">
<circle cx="784" cy="784" r="784" fill="#F8D568"/>
<path d="M353.793 1091.67C347.145 1099.63 338.914 1102.28 329.095 1101.19C322.316 1100.44 320.028 1096.16 323.837 1090.52C324.952 1088.87 326.162 1087.23 327.575 1085.84C340.391 1073.21 348.122 1057.25 357.299 1042.11C365.218 1029.03 371.251 1015.25 376.517 1001.22C383.034 983.863 389.581 966.477 394.641 948.517C400.036 929.368 405.27 910.146 411.123 891.11C414.439 880.323 418.022 869.537 420.575 858.595C424.409 842.164 429.089 825.957 432.943 809.53C437.384 790.605 441.575 771.598 446.904 752.866C452.216 734.195 456.756 715.301 461.573 696.491C464.492 685.093 467.008 673.584 470.098 662.214C473.448 649.891 475.8 637.27 479.773 625.101C483.992 612.18 485.103 598.733 487.154 585.433C488.156 578.935 487.899 572.472 487.291 566.005C486.772 560.495 486.637 555.029 487.795 549.593C488.64 545.627 490.434 542.943 495.19 543.198C501.305 543.527 506.71 540.615 512.436 539.106C521.105 536.82 529.524 537.436 537.707 543.346C546.246 549.515 546.646 557.769 547.238 566.527C547.802 574.879 547.17 583.252 546.066 591.459C544.114 605.986 543.22 620.612 541.913 635.17C539.982 656.668 536.539 678.169 538.827 699.925C539.398 705.35 539.134 710.903 538.813 716.371C538.208 726.668 541.132 736.536 542.65 746.509C543.875 754.562 547.121 762.513 553.64 768.414C557.367 771.788 561.367 771.19 565.26 769.325C578.438 763.012 589.963 754.283 600.529 744.291C618.37 727.418 632.701 707.587 647.467 688.129C651.903 682.284 654.665 675.465 658.487 669.254C663.885 660.479 671.428 653.198 675.775 643.684C679.826 634.819 685.391 626.769 689.187 617.679C693.461 607.443 699.445 597.935 704.253 587.904C712.277 571.161 719.573 554.059 727.912 537.478C733.955 525.464 740.232 513.522 745.506 501.196C751.307 487.638 757.209 474.008 760.77 459.586C763.123 450.056 765.796 440.625 769.648 431.583C771.875 426.356 773.729 421.135 774.071 415.344C774.526 407.653 780.738 404.307 787.136 408.184C789.583 409.666 792.208 409.731 794.786 410.175C803.509 411.676 815.387 423.761 817.288 432.443C821.032 449.544 816.629 466.068 814.519 482.806C813.242 492.94 810.17 502.661 807.075 512.161C803.474 523.213 800.932 534.509 797.639 545.611C793.771 558.651 789.403 571.606 786.41 584.841C783.403 598.133 780.072 611.348 776.889 624.589C773.432 638.971 768.639 652.998 764.988 667.373C759.423 689.289 753.974 711.218 748.995 733.274C744.788 751.905 739.957 770.4 735.997 789.081C734.384 796.686 732.287 804.247 731.9 812.141C731.599 818.279 729.838 824.227 728.388 830.225C724.946 844.461 724.253 859.139 722.2 873.601C719.369 893.553 717.457 913.625 715.833 933.656C714.495 950.168 715.661 966.95 716.612 983.561C717.551 999.976 718.711 1016.43 721.492 1032.67C723.116 1042.15 725.705 1051.44 728.301 1060.74C732.275 1074.98 737.97 1089.1 735.414 1104.51C734.443 1110.36 732.76 1111.18 727.071 1110.32C717.851 1108.92 712.096 1102.32 706.283 1096.56C698.38 1088.72 692.74 1079.14 689.391 1068.11C686.997 1060.23 683.306 1052.74 681.005 1044.71C678.703 1036.67 677.995 1028.4 676.149 1020.33C671.397 999.546 667.683 978.538 665.521 957.385C664.037 942.863 665.284 928.081 664.854 913.428C664.375 897.046 666.548 880.834 668.188 864.659C670.265 844.176 674.039 823.856 677.398 803.518C679.399 791.405 680.629 779.091 683.21 767.191C685.949 754.567 687.691 741.691 691.35 729.256C691.787 727.77 692.962 726.204 691.263 724.389C688.361 725.074 686.23 727.275 685.149 729.642C681.492 737.65 675.583 744.084 670.036 750.529C659.747 762.485 650.861 775.841 638.651 785.945C628.329 794.486 617.884 803.331 604.877 807.719C591.018 812.395 577.419 814.756 562.583 809.102C542.957 801.622 529.216 788.547 518.84 771.008C516.467 766.997 513.734 763.229 509.903 760.426C507.297 758.519 505.18 758.635 504.316 762.137C499.095 783.282 490.293 803.355 485.845 824.759C483.891 834.16 480.351 843.22 477.977 852.548C474.951 864.437 470.788 875.973 468.255 888.051C465.913 899.221 463.993 910.563 460.315 921.475C458.897 925.682 458.938 930.358 457.809 934.689C454.469 947.514 451.028 960.316 446.231 972.708C443.665 979.339 442.486 986.56 437.646 992.21C437.041 992.916 436.881 994.049 436.642 995.015C431.688 1015.05 421.534 1032.22 408.508 1048.06C403.421 1054.24 398.197 1059.01 390.149 1060.68C386.598 1061.41 383.417 1064.18 381.539 1067.23C377.088 1074.47 369.575 1078.06 363.479 1083.29C360.335 1085.99 357.035 1088.53 353.793 1091.67Z" fill="black"/>
<path d="M1102.36 795.251C1103.31 777.009 1104.24 759.219 1105.04 741.424C1106.4 711.132 1106.52 680.817 1106.99 650.505C1107.29 631.064 1107.89 611.549 1110.54 592.207C1110.66 591.385 1110.7 590.545 1110.69 589.714C1110.59 571.055 1111.11 552.411 1111.86 533.769C1111.95 531.371 1112.32 528.82 1111.11 526.632C1108.4 526.279 1108.14 528.313 1107.5 529.674C1101.88 541.525 1096.21 553.424 1090.24 565.013C1080.64 583.656 1073.68 603.429 1063.83 621.937C1057.68 633.49 1051.66 645.197 1046.56 657.336C1043.21 665.31 1037.52 672.053 1032.4 678.935C1023.86 690.412 1017.02 703.091 1007.48 713.846C988.39 735.369 969.354 756.974 946.629 774.826C939.123 780.722 931.496 787.17 920.934 786.656C914.111 786.324 907.419 784.841 900.665 783.959C891.582 782.773 882.638 781.055 873.701 779.124C869.83 778.288 866.5 776.463 863.333 774.38C859.972 772.169 859.893 768.334 862.641 765.332C865.108 762.637 868.363 762.027 871.741 761.916C881.467 761.595 889.306 756.796 896.167 750.699C906.711 741.328 916.539 731.17 926.542 721.21C940.986 706.829 954.604 691.822 966.45 675.341C977.293 660.254 987.58 644.755 994.909 627.442C997.65 620.966 1001.33 614.761 1004.69 608.522C1016.51 586.588 1028.41 564.734 1038.68 541.996C1045.99 525.811 1054.63 510.231 1061.96 494.053C1065.65 485.912 1069.12 477.529 1073.08 469.62C1077.85 460.086 1081.84 450.232 1085.5 440.398C1090.39 427.245 1097.86 414.937 1099.67 400.681C1100.07 397.55 1100.45 394.417 1100.82 391.282C1101.54 385.16 1106.11 382.491 1112.24 382.179C1120.85 381.742 1129.42 382.3 1138 382.008C1147.09 381.699 1157.89 390.661 1160.83 399.173C1166.41 415.376 1167.47 431.999 1167.4 448.92C1167.36 458.722 1168.4 468.528 1168.91 478.334C1169.4 487.669 1168.8 496.978 1168.26 506.296C1166.58 535.376 1166.18 564.518 1163.5 593.558C1162.57 603.638 1162.58 613.847 1162.27 623.992C1161.25 656.601 1158.63 689.125 1157.42 721.719C1156.62 743.178 1156.41 764.67 1155.05 786.092C1153.88 804.502 1153.79 822.995 1150.68 841.302C1148.76 852.59 1148.66 864.178 1147.06 875.534C1145.77 884.658 1145.12 893.951 1141.27 902.626C1138.28 909.344 1138.18 916.867 1136.49 923.976C1133.47 936.745 1130.27 949.526 1128.73 962.61C1127.74 970.917 1122.42 977.546 1120.02 985.348C1115.52 999.963 1108.42 1013.59 1102.79 1027.79C1098.01 1039.84 1094.81 1052.61 1086.99 1063.65C1081.02 1072.08 1077.53 1082.21 1071.16 1090.69C1061.29 1103.83 1049.05 1114.17 1035.19 1122.59C1029.5 1126.06 1022.91 1127.72 1016.02 1125.28C1014.32 1124.68 1012.36 1124.16 1010.63 1124.39C999.748 1125.85 991.715 1119.54 983.09 1114.71C977.616 1111.64 971.513 1109.83 966.657 1105.5C954.396 1094.56 944.237 1081.95 935.714 1067.95C931.134 1060.43 926.514 1052.92 921.66 1045.57C915.913 1036.87 914.118 1026.45 909.009 1017.46C900.729 1002.88 895.811 986.986 892.762 970.612C890.992 961.111 891.882 951.456 893.102 941.797C894.477 930.913 895.737 920.043 898.002 909.295C900.475 897.56 904.314 886.333 908.855 875.222C911.484 868.788 913.294 861.989 916.91 855.983C923.744 844.631 930.688 833.343 937.725 822.116C939.304 819.596 941.414 817.4 943.354 815.118C944.426 813.857 945.599 812.391 947.545 813.207C949.493 814.023 950.179 815.847 949.895 817.756C949.063 823.358 949.788 829.192 947.955 834.597C945.498 841.847 945.349 849.286 945.292 856.766C945.258 861.336 944.466 865.675 942.446 869.821C937.72 879.524 939.516 890.459 936.845 900.574C936.572 901.607 937.342 903.365 938.204 904.172C942.109 907.83 941.561 912.317 940.744 916.768C935.552 945.026 935.935 973.535 938.42 1001.9C939.833 1018.02 942.893 1034.3 948.772 1049.51C953.433 1061.57 960.116 1072.9 968.407 1082.95C972.167 1087.51 978.006 1089.29 983.904 1089.87C995.007 1090.95 1004.21 1086.17 1013.1 1080.28C1031.55 1068.06 1043.24 1050.65 1051.9 1030.76C1053.81 1026.36 1056.44 1022.27 1058.76 1018.04C1064.4 1007.77 1065.98 996.015 1070.58 985.398C1074.51 976.318 1076.6 966.6 1078.3 957.198C1080.65 944.14 1084.55 931.375 1085.87 918.101C1086.69 909.858 1089.72 902.005 1091.06 893.775C1093.88 876.371 1096.14 858.935 1097.91 841.383C1099.44 826.163 1100.73 810.92 1102.36 795.251Z" fill="black"/>
</svg>
